<svg width="240" height="234" viewBox="0 0 240 234" fill="none" xmlns="http://www.w3.org/2000/svg">
<g clip-path="url(#clip0_5_74)">
<path d="M42.5 1.88608e-05H197.5C203.083 -0.00524284 208.612 1.09046 213.77 3.22442C218.929 5.35838 223.616 8.48871 227.564 12.4362C231.511 16.3838 234.642 21.071 236.776 26.2297C238.91 31.3885 240.005 36.9174 240 42.5V191.5C240.005 197.083 238.91 202.612 236.776 207.77C234.642 212.929 231.511 217.616 227.564 221.564C223.616 225.511 218.929 228.642 213.77 230.776C208.612 232.91 203.083 234.005 197.5 234H42.5C36.9174 234.005 31.3885 232.91 26.2297 230.776C21.071 228.642 16.3838 225.511 12.4362 221.564C8.48871 217.616 5.35838 212.929 3.22442 207.77C1.09046 202.612 -0.00524284 197.083 1.88608e-05 191.5V42.5C-0.00524284 36.9174 1.09046 31.3885 3.22442 26.2297C5.35838 21.071 8.48871 16.3838 12.4362 12.4362C16.3838 8.48871 21.071 5.35838 26.2297 3.22442C31.3885 1.09046 36.9174 -0.00524284 42.5 1.88608e-05V1.88608e-05Z" fill="black"/>
<path d="M113.552 103.39H89.5817C89.2621 100.929 88.6069 98.7077 87.6161 96.7262C86.6254 94.7447 85.315 93.0508 83.685 91.6445C82.055 90.2383 80.1215 89.1676 77.8842 88.4325C75.679 87.6655 73.234 87.282 70.5494 87.282C65.7873 87.282 61.6804 88.4485 58.2287 90.7816C54.8089 93.1147 52.1722 96.4865 50.3185 100.897C48.4968 105.308 47.5859 110.645 47.5859 116.909C47.5859 123.429 48.5128 128.894 50.3665 133.305C52.2521 137.683 54.8889 140.991 58.2766 143.228C61.6964 145.434 65.7393 146.536 70.4055 146.536C73.0263 146.536 75.4073 146.201 77.5487 145.529C79.7219 144.858 81.6236 143.884 83.2536 142.605C84.9155 141.295 86.2738 139.713 87.3285 137.859C88.4151 135.973 89.1662 133.848 89.5817 131.483L113.552 131.627C113.136 135.973 111.874 140.256 109.765 144.475C107.687 148.694 104.827 152.545 101.183 156.028C97.5398 159.48 93.0973 162.229 87.8558 164.274C82.6463 166.32 76.6697 167.342 69.9261 167.342C61.0412 167.342 53.0831 165.393 46.0518 161.494C39.0526 157.562 33.5234 151.842 29.4645 144.331C25.4055 136.82 23.3761 127.68 23.3761 116.909C23.3761 106.107 25.4375 96.9499 29.5604 89.4393C33.6832 81.9286 39.2603 76.2237 46.2915 72.3246C53.3228 68.4254 61.201 66.4758 69.9261 66.4758C75.8707 66.4758 81.3679 67.3068 86.4176 68.9688C91.4673 70.5987 95.9098 72.9957 99.745 76.1598C103.58 79.2919 106.696 83.1431 109.093 87.7134C111.49 92.2837 112.977 97.5092 113.552 103.39ZM148.073 67.8182L170.03 139.729H170.845L192.802 67.8182H219.36L186.234 166H154.641L121.514 67.8182H148.073Z" fill="white"/>
</g>
<defs>
<clipPath id="clip0_5_74">
<rect width="240" height="234" fill="white"/>
</clipPath>
</defs>
</svg>
